<svg viewBox="0 0 16 16" xmlns="http://www.w3.org/2000/svg"><g><path d="m6.5 0c-3.584 0-6.5 2.467-6.5 5.5a4.978 4.978 0 0 0 1.39 3.4l-1.244 1.246a.5.5 0 0 0 .354.854h6c3.584 0 6.5-2.467 6.5-5.5s-2.916-5.5-6.5-5.5z" fill="#2196f3"/><path d="m14.61 12.9a4.981 4.981 0 0 0 1.39-3.4 5.12 5.12 0 0 0 -2-3.961c-.027 3.561-3.379 6.461-7.5 6.461h-2.782a6.714 6.714 0 0 0 5.782 3h6a.5.5 0 0 0 .354-.854z" fill="#64b5f6"/><g fill="#fafafa"><path d="m9.5 4h-6a.5.5 0 0 0 0 1h6a.5.5 0 0 0 0-1z"/><path d="m7.5 6h-4a.5.5 0 0 0 0 1h4a.5.5 0 0 0 0-1z"/></g></g></svg>